<?xml version="1.0" encoding="UTF-8"?>
<svg xmlns="http://www.w3.org/2000/svg" id="well-svg" width="100%" viewBox="0 0 480 480" style="border-radius: 16px; overflow: hidden;"><rect x="20" y="20" width="440" height="440" rx="64" fill="#1d2021"/><path d="M60.6,108.2 L68.9,108.9 L77.3,109.6 L85.6,110.3 L94.0,111.1 L102.3,111.8 L110.7,112.5 L119.0,113.2 L127.4,113.9 L135.7,114.6 L144.0,115.3 L152.4,116.0 L160.7,116.6 L169.1,117.2 L177.4,117.7 L185.8,118.2 L194.1,118.7 L202.5,119.0 L210.8,119.3 L219.1,119.6 L227.5,119.7 L235.8,119.8 L244.2,119.8 L252.5,119.7 L260.9,119.6 L269.2,119.3 L277.5,119.0 L285.9,118.7 L294.2,118.2 L302.6,117.7 L310.9,117.2 L319.3,116.6 L327.6,116.0 L336.0,115.3 L344.3,114.6 L352.6,113.9 L361.0,113.2 L369.3,112.5 L377.7,111.8 L386.0,111.1 L394.4,110.3 L402.7,109.6 L411.1,108.9 L419.4,108.2" stroke="#3c3836" stroke-width="0.35" fill="none" opacity="0.15000000000000002"/><path d="M60.6,134.5 L68.9,135.5 L77.3,136.5 L85.6,137.5 L94.0,138.6 L102.3,139.7 L110.7,140.8 L119.0,141.9 L127.4,143.1 L135.7,144.2 L144.0,145.3 L152.4,146.5 L160.7,147.6 L169.1,148.6 L177.4,149.6 L185.8,150.6 L194.1,151.4 L202.5,152.1 L210.8,152.8 L219.1,153.2 L227.5,153.6 L235.8,153.7 L244.2,153.7 L252.5,153.6 L260.9,153.2 L269.2,152.8 L277.5,152.1 L285.9,151.4 L294.2,150.6 L302.6,149.6 L310.9,148.6 L319.3,147.6 L327.6,146.5 L336.0,145.3 L344.3,144.2 L352.6,143.1 L361.0,141.9 L369.3,140.8 L377.7,139.7 L386.0,138.6 L394.4,137.5 L402.7,136.5 L411.1,135.5 L419.4,134.5" stroke="#3c3836" stroke-width="0.35" fill="none" opacity="0.36250000000000004"/><path d="M60.6,160.7 L68.9,162.0 L77.3,163.4 L85.6,164.8 L94.0,166.4 L102.3,168.0 L110.7,169.7 L119.0,171.5 L127.4,173.3 L135.7,175.2 L144.0,177.2 L152.4,179.2 L160.7,181.3 L169.1,183.4 L177.4,185.4 L185.8,187.4 L194.1,189.3 L202.5,191.1 L210.8,192.5 L219.1,193.7 L227.5,194.5 L235.8,195.0 L244.2,195.0 L252.5,194.5 L260.9,193.7 L269.2,192.5 L277.5,191.1 L285.9,189.3 L294.2,187.4 L302.6,185.4 L310.9,183.4 L319.3,181.3 L327.6,179.2 L336.0,177.2 L344.3,175.2 L352.6,173.3 L361.0,171.5 L369.3,169.7 L377.7,168.0 L386.0,166.4 L394.4,164.8 L402.7,163.4 L411.1,162.0 L419.4,160.7" stroke="#3c3836" stroke-width="0.42" fill="none" opacity="0.575"/><path d="M60.6,186.0 L68.9,187.6 L77.3,189.4 L85.6,191.3 L94.0,193.3 L102.3,195.5 L110.7,197.9 L119.0,200.4 L127.4,203.2 L135.7,206.1 L144.0,209.4 L152.4,212.9 L160.7,216.7 L169.1,220.8 L177.4,225.2 L185.8,229.9 L194.1,234.8 L202.5,239.7 L210.8,244.5 L219.1,248.7 L227.5,252.0 L235.8,253.8 L244.2,253.8 L252.5,252.0 L260.9,248.7 L269.2,244.5 L277.5,239.7 L285.9,234.8 L294.2,229.9 L302.6,225.2 L310.9,220.8 L319.3,216.7 L327.6,212.9 L336.0,209.4 L344.3,206.1 L352.6,203.2 L361.0,200.4 L369.3,197.9 L377.7,195.5 L386.0,193.3 L394.4,191.3 L402.7,189.4 L411.1,187.6 L419.4,186.0" stroke="#665c54" stroke-width="0.6" fill="none" opacity="0.7875"/><path d="M60.6,209.5 L68.9,211.3 L77.3,213.2 L85.6,215.3 L94.0,217.6 L102.3,220.0 L110.7,222.7 L119.0,225.7 L127.4,228.9 L135.7,232.5 L144.0,236.5 L152.4,241.0 L160.7,246.1 L169.1,251.9 L177.4,258.5 L185.8,266.2 L194.1,275.2 L202.5,285.9 L210.8,298.8 L219.1,314.8 L227.5,334.9 L235.8,361.2 L244.2,361.2 L252.5,334.9 L260.9,314.8 L269.2,298.8 L277.5,285.9 L285.9,275.2 L294.2,266.2 L302.6,258.5 L310.9,251.9 L319.3,246.1 L327.6,241.0 L336.0,236.5 L344.3,232.5 L352.6,228.9 L361.0,225.7 L369.3,222.7 L377.7,220.0 L386.0,217.6 L394.4,215.3 L402.7,213.2 L411.1,211.3 L419.4,209.5" stroke="#7c6f64" stroke-width="0.7" fill="none" opacity="1"/><path d="M60.6,230.8 L68.9,232.5 L77.3,234.2 L85.6,236.1 L94.0,238.2 L102.3,240.3 L110.7,242.7 L119.0,245.3 L127.4,248.0 L135.7,251.0 L144.0,254.2 L152.4,257.7 L160.7,261.5 L169.1,265.6 L177.4,270.0 L185.8,274.7 L194.1,279.6 L202.5,284.6 L210.8,289.3 L219.1,293.6 L227.5,296.8 L235.8,298.6 L244.2,298.6 L252.5,296.8 L260.9,293.6 L269.2,289.3 L277.5,284.6 L285.9,279.6 L294.2,274.7 L302.6,270.0 L310.9,265.6 L319.3,261.5 L327.6,257.7 L336.0,254.2 L344.3,251.0 L352.6,248.0 L361.0,245.3 L369.3,242.7 L377.7,240.3 L386.0,238.2 L394.4,236.1 L402.7,234.2 L411.1,232.5 L419.4,230.8" stroke="#665c54" stroke-width="0.6" fill="none" opacity="0.7874999999999999"/><path d="M60.6,250.4 L68.9,251.7 L77.3,253.1 L85.6,254.5 L94.0,256.1 L102.3,257.7 L110.7,259.4 L119.0,261.2 L127.4,263.0 L135.7,264.9 L144.0,266.9 L152.4,268.9 L160.7,271.0 L169.1,273.1 L177.4,275.1 L185.8,277.1 L194.1,279.0 L202.5,280.8 L210.8,282.2 L219.1,283.4 L227.5,284.2 L235.8,284.7 L244.2,284.7 L252.5,284.2 L260.9,283.4 L269.2,282.2 L277.5,280.8 L285.9,279.0 L294.2,277.1 L302.6,275.1 L310.9,273.1 L319.3,271.0 L327.6,268.9 L336.0,266.9 L344.3,264.9 L352.6,263.0 L361.0,261.2 L369.3,259.4 L377.7,257.7 L386.0,256.1 L394.4,254.5 L402.7,253.1 L411.1,251.7 L419.4,250.4" stroke="#3c3836" stroke-width="0.42" fill="none" opacity="0.575"/><path d="M60.6,269.0 L68.9,270.0 L77.3,271.0 L85.6,272.1 L94.0,273.1 L102.3,274.2 L110.7,275.3 L119.0,276.5 L127.4,277.6 L135.7,278.8 L144.0,279.9 L152.4,281.0 L160.7,282.1 L169.1,283.2 L177.4,284.2 L185.8,285.1 L194.1,286.0 L202.5,286.7 L210.8,287.3 L219.1,287.8 L227.5,288.1 L235.8,288.3 L244.2,288.3 L252.5,288.1 L260.9,287.8 L269.2,287.3 L277.5,286.7 L285.9,286.0 L294.2,285.1 L302.6,284.2 L310.9,283.2 L319.3,282.1 L327.6,281.0 L336.0,279.9 L344.3,278.8 L352.6,277.6 L361.0,276.5 L369.3,275.3 L377.7,274.2 L386.0,273.1 L394.4,272.1 L402.7,271.0 L411.1,270.0 L419.4,269.0" stroke="#3c3836" stroke-width="0.35" fill="none" opacity="0.36250000000000016"/><path d="M60.6,287.6 L68.9,288.3 L77.3,289.0 L85.6,289.7 L94.0,290.5 L102.3,291.2 L110.7,291.9 L119.0,292.6 L127.4,293.3 L135.7,294.0 L144.0,294.7 L152.4,295.4 L160.7,296.0 L169.1,296.6 L177.4,297.1 L185.8,297.6 L194.1,298.1 L202.5,298.4 L210.8,298.7 L219.1,299.0 L227.5,299.1 L235.8,299.2 L244.2,299.2 L252.5,299.1 L260.9,299.0 L269.2,298.7 L277.5,298.4 L285.9,298.1 L294.2,297.6 L302.6,297.1 L310.9,296.6 L319.3,296.0 L327.6,295.4 L336.0,294.7 L344.3,294.0 L352.6,293.3 L361.0,292.6 L369.3,291.9 L377.7,291.2 L386.0,290.5 L394.4,289.7 L402.7,289.0 L411.1,288.3 L419.4,287.6" stroke="#3c3836" stroke-width="0.35" fill="none" opacity="0.15000000000000002"/><path d="M60.6,108.2 L60.6,113.1 L60.6,118.0 L60.6,122.9 L60.6,127.8 L60.6,132.7 L60.6,137.5 L60.6,142.4 L60.6,147.3 L60.6,152.2 L60.6,157.0 L60.6,161.9 L60.6,166.7 L60.6,171.4 L60.6,176.1 L60.6,180.8 L60.6,185.4 L60.6,190.0 L60.6,194.4 L60.6,198.8 L60.6,203.2 L60.6,207.4 L60.6,211.6 L60.6,215.7 L60.6,219.7 L60.6,223.6 L60.6,227.5 L60.6,231.3 L60.6,235.0 L60.6,238.7 L60.6,242.3 L60.6,245.9 L60.6,249.5 L60.6,253.0 L60.6,256.5 L60.6,260.0 L60.6,263.4 L60.6,266.9 L60.6,270.3 L60.6,273.8 L60.6,277.2 L60.6,280.7 L60.6,284.1 L60.6,287.6" stroke="#3c3836" stroke-width="0.35" fill="none" opacity="0.15000000000000002"/><path d="M105.5,112.1 L105.5,117.2 L105.5,122.4 L105.5,127.6 L105.5,132.8 L105.5,138.1 L105.5,143.4 L105.5,148.7 L105.5,154.0 L105.5,159.3 L105.5,164.6 L105.5,169.9 L105.5,175.2 L105.5,180.4 L105.5,185.6 L105.5,190.7 L105.5,195.7 L105.5,200.6 L105.5,205.4 L105.5,210.1 L105.5,214.6 L105.5,218.9 L105.5,223.1 L105.5,227.1 L105.5,230.9 L105.5,234.6 L105.5,238.2 L105.5,241.6 L105.5,245.0 L105.5,248.2 L105.5,251.4 L105.5,254.5 L105.5,257.6 L105.5,260.6 L105.5,263.6 L105.5,266.7 L105.5,269.7 L105.5,272.7 L105.5,275.8 L105.5,278.9 L105.5,282.0 L105.5,285.1 L105.5,288.3 L105.5,291.5" stroke="#3c3836" stroke-width="0.35" fill="none" opacity="0.36250000000000004"/><path d="M150.3,115.8 L150.3,121.3 L150.3,126.9 L150.3,132.5 L150.3,138.2 L150.3,144.0 L150.3,149.9 L150.3,155.8 L150.3,161.8 L150.3,167.9 L150.3,174.1 L150.3,180.3 L150.3,186.5 L150.3,192.8 L150.3,199.0 L150.3,205.2 L150.3,211.2 L150.3,217.1 L150.3,222.8 L150.3,228.1 L150.3,233.1 L150.3,237.7 L150.3,241.9 L150.3,245.6 L150.3,249.0 L150.3,252.0 L150.3,254.7 L150.3,257.1 L150.3,259.4 L150.3,261.6 L150.3,263.7 L150.3,265.8 L150.3,267.9 L150.3,270.0 L150.3,272.2 L150.3,274.5 L150.3,276.8 L150.3,279.2 L150.3,281.7 L150.3,284.2 L150.3,286.9 L150.3,289.6 L150.3,292.4 L150.3,295.2" stroke="#3c3836" stroke-width="0.42" fill="none" opacity="0.575"/><path d="M195.2,118.7 L195.2,124.5 L195.2,130.5 L195.2,136.5 L195.2,142.7 L195.2,149.1 L195.2,155.6 L195.2,162.3 L195.2,169.3 L195.2,176.4 L195.2,183.8 L195.2,191.5 L195.2,199.5 L195.2,207.8 L195.2,216.3 L195.2,225.2 L195.2,234.2 L195.2,243.4 L195.2,252.3 L195.2,260.7 L195.2,268.1 L195.2,274.1 L195.2,278.3 L195.2,280.7 L195.2,281.6 L195.2,281.5 L195.2,280.9 L195.2,280.1 L195.2,279.4 L195.2,278.9 L195.2,278.7 L195.2,278.7 L195.2,279.1 L195.2,279.8 L195.2,280.7 L195.2,281.9 L195.2,283.3 L195.2,284.9 L195.2,286.8 L195.2,288.7 L195.2,290.9 L195.2,293.2 L195.2,295.6 L195.2,298.1" stroke="#665c54" stroke-width="0.6" fill="none" opacity="0.7875"/><path d="M240.0,119.8 L240.0,125.8 L240.0,131.9 L240.0,138.1 L240.0,144.6 L240.0,151.2 L240.0,158.1 L240.0,165.2 L240.0,172.6 L240.0,180.4 L240.0,188.6 L240.0,197.2 L240.0,206.5 L240.0,216.4 L240.0,227.2 L240.0,239.1 L240.0,252.2 L240.0,267.1 L240.0,284.2 L240.0,304.3 L240.0,328.7 L240.0,359.2 L240.0,363.3 L240.0,341.2 L240.0,325.2 L240.0,313.4 L240.0,304.7 L240.0,298.1 L240.0,293.3 L240.0,289.8 L240.0,287.4 L240.0,285.8 L240.0,284.9 L240.0,284.5 L240.0,284.7 L240.0,285.3 L240.0,286.2 L240.0,287.4 L240.0,288.9 L240.0,290.6 L240.0,292.5 L240.0,294.6 L240.0,296.8 L240.0,299.2" stroke="#7c6f64" stroke-width="0.7" fill="none" opacity="1"/><path d="M284.9,118.7 L284.9,124.5 L284.9,130.5 L284.9,136.5 L284.9,142.7 L284.9,149.1 L284.9,155.6 L284.9,162.3 L284.9,169.3 L284.9,176.4 L284.9,183.8 L284.9,191.5 L284.9,199.5 L284.9,207.8 L284.9,216.3 L284.9,225.2 L284.9,234.2 L284.9,243.4 L284.9,252.3 L284.9,260.7 L284.9,268.1 L284.9,274.1 L284.9,278.3 L284.9,280.7 L284.9,281.6 L284.9,281.5 L284.9,280.9 L284.9,280.1 L284.9,279.4 L284.9,278.9 L284.9,278.7 L284.9,278.7 L284.9,279.1 L284.9,279.8 L284.9,280.7 L284.9,281.9 L284.9,283.3 L284.9,284.9 L284.9,286.8 L284.9,288.7 L284.9,290.9 L284.9,293.2 L284.9,295.6 L284.9,298.1" stroke="#665c54" stroke-width="0.6" fill="none" opacity="0.7874999999999999"/><path d="M329.7,115.8 L329.7,121.3 L329.7,126.9 L329.7,132.5 L329.7,138.2 L329.7,144.0 L329.7,149.9 L329.7,155.8 L329.7,161.8 L329.7,167.9 L329.7,174.1 L329.7,180.3 L329.7,186.5 L329.7,192.8 L329.7,199.0 L329.7,205.2 L329.7,211.2 L329.7,217.1 L329.7,222.8 L329.7,228.1 L329.7,233.1 L329.7,237.7 L329.7,241.9 L329.7,245.6 L329.7,249.0 L329.7,252.0 L329.7,254.7 L329.7,257.1 L329.7,259.4 L329.7,261.6 L329.7,263.7 L329.7,265.8 L329.7,267.9 L329.7,270.0 L329.7,272.2 L329.7,274.5 L329.7,276.8 L329.7,279.2 L329.7,281.7 L329.7,284.2 L329.7,286.9 L329.7,289.6 L329.7,292.4 L329.7,295.2" stroke="#3c3836" stroke-width="0.42" fill="none" opacity="0.575"/><path d="M374.5,112.1 L374.5,117.2 L374.5,122.4 L374.5,127.6 L374.5,132.8 L374.5,138.1 L374.5,143.4 L374.5,148.7 L374.5,154.0 L374.5,159.3 L374.5,164.6 L374.5,169.9 L374.5,175.2 L374.5,180.4 L374.5,185.6 L374.5,190.7 L374.5,195.7 L374.5,200.6 L374.5,205.4 L374.5,210.1 L374.5,214.6 L374.5,218.9 L374.5,223.1 L374.5,227.1 L374.5,230.9 L374.5,234.6 L374.5,238.2 L374.5,241.6 L374.5,245.0 L374.5,248.2 L374.5,251.4 L374.5,254.5 L374.5,257.6 L374.5,260.6 L374.5,263.6 L374.5,266.7 L374.5,269.7 L374.5,272.7 L374.5,275.8 L374.5,278.9 L374.5,282.0 L374.5,285.1 L374.5,288.3 L374.5,291.5" stroke="#3c3836" stroke-width="0.35" fill="none" opacity="0.36250000000000016"/><path d="M419.4,108.2 L419.4,113.1 L419.4,118.0 L419.4,122.9 L419.4,127.8 L419.4,132.7 L419.4,137.5 L419.4,142.4 L419.4,147.3 L419.4,152.2 L419.4,157.0 L419.4,161.9 L419.4,166.7 L419.4,171.4 L419.4,176.1 L419.4,180.8 L419.4,185.4 L419.4,190.0 L419.4,194.4 L419.4,198.8 L419.4,203.2 L419.4,207.4 L419.4,211.6 L419.4,215.7 L419.4,219.7 L419.4,223.6 L419.4,227.5 L419.4,231.3 L419.4,235.0 L419.4,238.7 L419.4,242.3 L419.4,245.9 L419.4,249.5 L419.4,253.0 L419.4,256.5 L419.4,260.0 L419.4,263.4 L419.4,266.9 L419.4,270.3 L419.4,273.8 L419.4,277.2 L419.4,280.7 L419.4,284.1 L419.4,287.6" stroke="#3c3836" stroke-width="0.35" fill="none" opacity="0.15000000000000002"/><circle cx="91.80000000000001" cy="153.96553669150794" r="2" fill="#a89984" opacity="0.35"/><circle cx="376.5" cy="260.7989704632598" r="2" fill="#a89984" opacity="0.35"/><circle cx="142.5" cy="280.2989704632598" r="2" fill="#a89984" opacity="0.35"/><circle cx="396" cy="171.5664969416063" r="2" fill="#a89984" opacity="0.35"/><circle cx="146.4" cy="214.3801085141084" r="2.8" fill="#8ec07c" opacity="0.55"/><circle cx="310.2" cy="271.2459920422663" r="2.8" fill="#8ec07c" opacity="0.55"/><circle cx="193.2" cy="278.0430118588424" r="2.8" fill="#8ec07c" opacity="0.55"/><circle cx="333.6" cy="200.6239062024427" r="2.8" fill="#8ec07c" opacity="0.55"/><circle cx="201" cy="263.9702282174217" r="3.8" fill="#fabd2f" opacity="0.8"/><circle cx="271.2" cy="294.28338695690456" r="3.8" fill="#fabd2f" opacity="0.8"/><circle cx="216.6" cy="295.1702282174217" r="3.8" fill="#fabd2f" opacity="0.8"/><circle cx="224.4" cy="326.34542231529895" r="4.5" fill="#fb4934" opacity="0.92"/><circle cx="249.75" cy="321.9768873446321" r="4.5" fill="#fb4934" opacity="0.92"/><g><circle cx="240" cy="377.64032554232523" r="18" fill="#d79921" opacity="0.95"/><circle cx="240" cy="377.64032554232523" r="12.6" fill="#b57614" opacity="0.3"/><circle cx="236" cy="375.64032554232523" r="2.8" fill="#1d2021"/><circle cx="244.5" cy="375.64032554232523" r="2.8" fill="#1d2021"/><circle cx="236.7" cy="374.8403255423252" r="1.1" fill="#ebdbb2" opacity="0.95"/><circle cx="245.2" cy="374.8403255423252" r="1.1" fill="#ebdbb2" opacity="0.95"/></g></svg>